<svg width="37" height="37" viewBox="0 0 37 37" fill="none" xmlns="http://www.w3.org/2000/svg">
<path d="M27.3846 23.5769V12.1538C27.3846 11.8172 27.2509 11.4944 27.0129 11.2564C26.7748 11.0183 26.452 10.8846 26.1154 10.8846H5.80769C5.47107 10.8846 5.14824 11.0183 4.91021 11.2564C4.67218 11.4944 4.53846 11.8172 4.53846 12.1538V23.5769C4.53846 24.9234 5.07335 26.2147 6.02546 27.1668C6.97757 28.119 8.2689 28.6538 9.61538 28.6538H22.3077C23.6542 28.6538 24.9455 28.119 25.8976 27.1668C26.8497 26.2147 27.3846 24.9234 27.3846 23.5769ZM27.3846 23.5769H29.9231C31.2696 23.5769 32.5609 23.042 33.513 22.0899C34.4651 21.1378 35 19.8465 35 18.5C35 17.1535 34.4651 15.8622 33.513 14.9101C32.5609 13.958 31.2696 13.4231 29.9231 13.4231H27.3846M2 35H35M8.34615 2V4.53846M21.0385 2V4.53846M14.6923 2V4.53846" stroke="black" stroke-width="3.5" stroke-linecap="round" stroke-linejoin="round"/>
</svg>
