<svg width="65" height="52" viewBox="0 0 65 52" fill="none" xmlns="http://www.w3.org/2000/svg">
<mask id="path-1-inside-1_210_48" fill="white">
<path fill-rule="evenodd" clip-rule="evenodd" d="M1 17.4723V34.4659C1 38.8869 4.32983 43.0025 9.96521 46.0421C15.5804 49.0708 23.372 50.9595 32.0058 50.9595C40.6396 50.9595 48.4312 49.0708 54.0465 46.0421C59.6818 43.0025 63.0117 38.8869 63.0117 34.4659V17.4723H64.0117V34.4659V35.7731H63.9249C63.3349 40.1977 59.7769 44.0874 54.5212 46.9222C48.7335 50.044 40.7722 51.9595 32.0058 51.9595C23.2394 51.9595 15.2781 50.044 9.49048 46.9222C4.23474 44.0874 0.676782 40.1977 0.0867618 35.7731H0V34.4659V17.4723H1Z"/>
</mask>
<path d="M1 17.4723H1.5V16.9723H1V17.4723ZM9.96521 46.0421L10.2026 45.602L9.96521 46.0421ZM54.0465 46.0421L53.8091 45.602L54.0465 46.0421ZM63.0117 17.4723V16.9723H62.5117V17.4723H63.0117ZM64.0117 17.4723H64.5117V16.9723H64.0117V17.4723ZM64.0117 35.7731V36.2731H64.5117V35.7731H64.0117ZM63.9249 35.7731V35.2731H63.4871L63.4293 35.707L63.9249 35.7731ZM54.5212 46.9222L54.2838 46.4822L54.5212 46.9222ZM9.49048 46.9222L9.25312 47.3623L9.49048 46.9222ZM0.0867618 35.7731L0.582375 35.707L0.524513 35.2731H0.0867618V35.7731ZM0 35.7731H-0.5V36.2731H0V35.7731ZM0 17.4723V16.9723H-0.5V17.4723H0ZM1.5 34.4659V17.4723H0.5V34.4659H1.5ZM10.2026 45.602C4.63358 42.5982 1.5 38.6155 1.5 34.4659H0.5C0.5 39.1583 4.02609 43.4068 9.72784 46.4822L10.2026 45.602ZM32.0058 50.4595C23.4384 50.4595 15.7315 48.5843 10.2026 45.602L9.72784 46.4822C15.4293 49.5574 23.3057 51.4595 32.0058 51.4595V50.4595ZM53.8091 45.602C48.2801 48.5843 40.5733 50.4595 32.0058 50.4595V51.4595C40.7059 51.4595 48.5824 49.5574 54.2838 46.4822L53.8091 45.602ZM62.5117 34.4659C62.5117 38.6155 59.3781 42.5982 53.8091 45.602L54.2838 46.4822C59.9856 43.4068 63.5117 39.1583 63.5117 34.4659H62.5117ZM62.5117 17.4723V34.4659H63.5117V17.4723H62.5117ZM64.0117 16.9723H63.0117V17.9723H64.0117V16.9723ZM64.5117 34.4659V17.4723H63.5117V34.4659H64.5117ZM64.5117 35.7731V34.4659H63.5117V35.7731H64.5117ZM63.9249 36.2731H64.0117V35.2731H63.9249V36.2731ZM54.7585 47.3623C60.0776 44.4933 63.7999 40.4935 64.4205 35.8392L63.4293 35.707C62.8699 39.9018 59.4762 43.6815 54.2838 46.4822L54.7585 47.3623ZM32.0058 52.4595C40.8385 52.4595 48.8846 50.5306 54.7585 47.3623L54.2838 46.4822C48.5824 49.5574 40.7059 51.4595 32.0058 51.4595V52.4595ZM9.25312 47.3623C15.127 50.5306 23.1731 52.4595 32.0058 52.4595V51.4595C23.3057 51.4595 15.4293 49.5574 9.72784 46.4822L9.25312 47.3623ZM-0.408851 35.8392C0.211806 40.4935 3.93406 44.4933 9.25312 47.3623L9.72784 46.4822C4.53541 43.6815 1.14176 39.9018 0.582375 35.707L-0.408851 35.8392ZM0 36.2731H0.0867618V35.2731H0V36.2731ZM-0.5 34.4659V35.7731H0.5V34.4659H-0.5ZM-0.5 17.4723V34.4659H0.5V17.4723H-0.5ZM1 16.9723H0V17.9723H1V16.9723Z" fill="black" mask="url(#path-1-inside-1_210_48)"/>
<path d="M63.5039 16.76C63.5039 21.1089 60.1289 25.1673 54.3993 28.1682C48.6935 31.1566 40.7764 33.02 32.0039 33.02C23.2315 33.02 15.3143 31.1566 9.60847 28.1682C3.87895 25.1673 0.503906 21.1089 0.503906 16.76C0.503906 12.4111 3.87895 8.35265 9.60847 5.35182C15.3143 2.36339 23.2315 0.5 32.0039 0.5C40.7764 0.5 48.6935 2.36339 54.3993 5.35182C60.1289 8.35265 63.5039 12.4111 63.5039 16.76Z" stroke="black"/>
<path d="M61.75 17.9691C61.75 22.1079 58.4979 25.9175 53.0984 28.7072C47.7118 31.4903 40.2527 33.2191 32 33.2191C23.7473 33.2191 16.2882 31.4903 10.9016 28.7072C5.50213 25.9175 2.25 22.1079 2.25 17.9691C2.25 13.8303 5.50213 10.0208 10.9016 7.23107C16.2882 4.44794 23.7473 2.71912 32 2.71912C40.2527 2.71912 47.7118 4.44794 53.0984 7.23107C58.4979 10.0208 61.75 13.8303 61.75 17.9691Z" stroke="black" stroke-width="0.5"/>
<path d="M39.1337 16.5454C37.7524 17.2158 37.7524 18.2586 37.9826 18.78C37.9826 18.78 38.2128 19.227 39.1337 19.8974C40.0546 20.5678 40.515 20.7913 40.515 20.7913C41.4359 21.2382 42.587 21.2382 43.2776 21.0147C43.9683 20.7913 47.268 19.3015 48.8028 18.3331C49.2632 17.6627 49.033 17.2158 48.3424 16.7688C47.1913 15.875 46.5006 15.6515 46.0402 15.4281C45.6719 15.2493 44.1218 15.0556 43.2777 15.2046C42.5103 15.3536 40.5412 15.8623 39.1337 16.5454Z" stroke="black" stroke-width="0.5"/>
<path d="M52.0257 25.7074C50.5523 26.0649 48.1888 25.7819 47.1912 25.4839C47.1912 25.4839 42.3566 23.2493 40.7451 22.5789C39.1336 21.9085 37.5221 20.5677 36.8314 19.6738C35.9681 18.5565 36.371 16.9922 37.7523 15.8749C39.1336 15.2045 41.2976 14.4447 42.5868 14.0871C44.1984 13.6402 46.7308 13.8637 48.112 14.5341C49.4933 15.2045 52.9466 19.2269 52.9466 19.2269C52.9466 19.2269 54.5581 21.0146 55.2487 22.1319C55.5904 22.6847 55.172 23.2493 55.0185 23.6962C54.4814 24.1431 53.4991 25.3499 52.0257 25.7074Z" stroke="black" stroke-width="0.5"/>
<path d="M45.3495 21.9086C44.6128 22.4449 45.4262 22.9514 45.8099 23.2494C46.7308 23.9198 47.8819 24.3667 48.8027 24.3667C50.0425 24.3667 51.3351 24.3667 51.7955 24.1433C52.256 23.9198 53.1768 23.2494 53.4071 23.0259C53.6983 22.7433 53.5605 22.2065 53.4071 21.9086C52.9466 21.4617 51.8416 20.4784 51.1049 20.1209C50.3682 19.7633 49.2632 19.9719 48.8027 20.1209C47.9586 20.4933 46.0862 21.3723 45.3495 21.9086Z" stroke="black" stroke-width="0.5"/>
<path d="M48.0001 25.7245C43.6256 27.8062 37.7645 29.0792 31.323 29.0792C17.7862 29.0792 6.81238 23.4572 6.81238 16.5223C6.81238 9.58726 17.7862 3.96533 31.323 3.96533C44.8599 3.96533 55.8337 9.58726 55.8337 16.5223C55.8337 18.0397 55.3083 19.4942 54.3456 20.8408" stroke="black" stroke-width="0.5"/>
</svg>
