<svg width="30" height="37" viewBox="0 0 30 37" fill="none" xmlns="http://www.w3.org/2000/svg">
<path d="M14.9997 14.6667L7.66634 4.4L10.5997 0H19.3997L22.333 4.4L14.9997 14.6667ZM21.4163 8.8L19.2163 11.9167C23.2497 13.5667 25.9997 17.4167 25.9997 22C25.9997 24.9174 24.8408 27.7153 22.7779 29.7782C20.715 31.8411 17.9171 33 14.9997 33C12.0823 33 9.2844 31.8411 7.2215 29.7782C5.1586 27.7153 3.99967 24.9174 3.99967 22C3.99967 17.4167 6.74967 13.5667 10.783 11.9167L8.58301 8.8C3.63301 11.1833 0.333008 16.1333 0.333008 22C0.333008 25.8898 1.87824 29.6204 4.62878 32.3709C7.37931 35.1214 11.1098 36.6667 14.9997 36.6667C18.8895 36.6667 22.62 35.1214 25.3706 32.3709C28.1211 29.6204 29.6663 25.8898 29.6663 22C29.6663 16.1333 26.3663 11.1833 21.4163 8.8Z" fill="black"/>
</svg>
