<svg width="36" height="33" viewBox="0 0 36 33" fill="none" xmlns="http://www.w3.org/2000/svg">
<path d="M33.8335 16.5V29.5C33.8335 30.362 33.4999 31.1886 32.906 31.7981C32.3121 32.4076 31.5067 32.75 30.6668 32.75H5.3335C4.49364 32.75 3.68819 32.4076 3.09432 31.7981C2.50046 31.1886 2.16683 30.362 2.16683 29.5V16.5C1.7469 16.5 1.34418 16.3288 1.04724 16.024C0.750311 15.7193 0.583496 15.306 0.583496 14.875V10C0.583496 9.13805 0.917126 8.3114 1.51099 7.7019C2.10486 7.09241 2.91031 6.75 3.75016 6.75H8.76933C8.59039 6.22794 8.49936 5.67842 8.50016 5.125C8.50016 3.83207 9.00061 2.59209 9.89141 1.67785C10.7822 0.763615 11.9904 0.25 13.2502 0.25C14.8335 0.25 16.2268 1.0625 17.0977 2.265V2.24875L18.0002 3.5L18.9027 2.24875V2.265C19.7735 1.0625 21.1668 0.25 22.7502 0.25C24.0099 0.25 25.2181 0.763615 26.1089 1.67785C26.9997 2.59209 27.5002 3.83207 27.5002 5.125C27.501 5.67842 27.4099 6.22794 27.231 6.75H32.2502C33.09 6.75 33.8955 7.09241 34.4893 7.7019C35.0832 8.3114 35.4168 9.13805 35.4168 10V14.875C35.4168 15.306 35.25 15.7193 34.9531 16.024C34.6562 16.3288 34.2534 16.5 33.8335 16.5ZM5.3335 29.5H16.4168V16.5H5.3335V29.5ZM30.6668 29.5V16.5H19.5835V29.5H30.6668ZM13.2502 3.5C12.8302 3.5 12.4275 3.67121 12.1306 3.97595C11.8336 4.2807 11.6668 4.69402 11.6668 5.125C11.6668 5.55598 11.8336 5.9693 12.1306 6.27405C12.4275 6.57879 12.8302 6.75 13.2502 6.75C13.6701 6.75 14.0728 6.57879 14.3698 6.27405C14.6667 5.9693 14.8335 5.55598 14.8335 5.125C14.8335 4.69402 14.6667 4.2807 14.3698 3.97595C14.0728 3.67121 13.6701 3.5 13.2502 3.5ZM22.7502 3.5C22.3302 3.5 21.9275 3.67121 21.6306 3.97595C21.3336 4.2807 21.1668 4.69402 21.1668 5.125C21.1668 5.55598 21.3336 5.9693 21.6306 6.27405C21.9275 6.57879 22.3302 6.75 22.7502 6.75C23.1701 6.75 23.5728 6.57879 23.8698 6.27405C24.1667 5.9693 24.3335 5.55598 24.3335 5.125C24.3335 4.69402 24.1667 4.2807 23.8698 3.97595C23.5728 3.67121 23.1701 3.5 22.7502 3.5ZM3.75016 10V13.25H16.4168V10H3.75016ZM19.5835 10V13.25H32.2502V10H19.5835Z" fill="black"/>
</svg>
