<svg width="31" height="31" viewBox="0 0 31 31" fill="none" xmlns="http://www.w3.org/2000/svg">
<path d="M27.8335 0.083374H7.79183C3.54145 0.083374 0.0834961 3.54133 0.0834961 7.79171V23.2084C0.0834961 27.4587 3.54145 30.9167 7.79183 30.9167H26.2918C28.8417 30.9167 30.9168 28.8416 30.9168 26.2917C30.9168 23.7418 28.8417 21.6667 26.2918 21.6667H6.25016V24.75H26.2918C26.7007 24.75 27.0928 24.9125 27.382 25.2016C27.6711 25.4907 27.8335 25.8828 27.8335 26.2917C27.8335 26.7006 27.6711 27.0927 27.382 27.3818C27.0928 27.671 26.7007 27.8334 26.2918 27.8334H7.79183C5.24191 27.8334 3.16683 25.7583 3.16683 23.2084C3.16683 20.6585 5.24191 18.5834 7.79183 18.5834H27.8335C29.534 18.5834 30.9168 17.2005 30.9168 15.5V3.16671C30.9168 1.46625 29.534 0.083374 27.8335 0.083374ZM27.8335 15.5H7.79183C6.12313 15.4979 4.4993 16.0403 3.16683 17.0448V7.79171C3.16683 5.24179 5.24191 3.16671 7.79183 3.16671H27.8335V15.5Z" fill="black"/>
</svg>
