<svg width="87" height="34" viewBox="0 0 87 34" fill="none" xmlns="http://www.w3.org/2000/svg">
<path d="M0 4.2C0 1.8804 1.8804 0 4.2 0H82.8C85.1196 0 87 1.8804 87 4.2V16H0V4.2Z" fill="#BAF3FF"/>
<path d="M0 16H87V29.8C87 32.1196 85.1196 34 82.8 34H4.2C1.8804 34 0 32.1196 0 29.8V16Z" fill="#FFF59B"/>
<path d="M19.208 22.4487V25H7.57471V22.4487H11.835V10.7178L7.70898 13.2935V10.5957L12.0181 7.80029H15.2651V22.4487H19.208ZM33.124 19.2749C33.124 21.0978 32.5544 22.5505 31.415 23.6328C30.2839 24.707 28.7295 25.2441 26.752 25.2441C25.0267 25.2441 23.6432 24.8576 22.6016 24.0845C21.568 23.3032 20.9292 22.1761 20.6851 20.7031L24.1152 20.4224C24.2943 21.1548 24.6117 21.6878 25.0674 22.0215C25.5231 22.3551 26.0968 22.522 26.7886 22.522C27.6431 22.522 28.3226 22.2493 28.8271 21.7041C29.3398 21.1589 29.5962 20.3735 29.5962 19.3481C29.5962 18.4448 29.3561 17.7246 28.876 17.1875C28.3958 16.6423 27.7244 16.3696 26.8618 16.3696C26.3898 16.3696 25.9585 16.4632 25.5679 16.6504C25.1772 16.8294 24.8314 17.1061 24.5303 17.4805H21.1855L21.7837 7.80029H32.123V10.3516H24.8965L24.6157 14.6973C25.4458 13.9648 26.4834 13.5986 27.7285 13.5986C28.819 13.5986 29.7671 13.8306 30.5728 14.2944C31.3866 14.7502 32.0132 15.4012 32.4526 16.2476C32.9002 17.0939 33.124 18.103 33.124 19.2749ZM45.978 14.1113V25H42.5356V11.792H50.5312V14.1113H45.978ZM65.4604 18.335C65.4604 20.5404 65.0169 22.2453 64.1299 23.4497C63.251 24.646 62.0059 25.2441 60.3945 25.2441C58.4821 25.2441 57.1475 24.4629 56.3906 22.9004H56.3174C56.3662 23.1445 56.3906 23.8851 56.3906 25.1221V30.188H52.9604V14.8315C52.9604 14.2049 52.9523 13.6393 52.936 13.1348C52.9198 12.6302 52.8953 12.1826 52.8628 11.792H56.1953C56.2279 11.8896 56.2523 12.0565 56.2686 12.2925C56.293 12.5203 56.3092 12.7808 56.3174 13.0737C56.3337 13.3667 56.3418 13.6556 56.3418 13.9404H56.3906C56.7731 13.1266 57.3184 12.5203 58.0264 12.1216C58.7344 11.7147 59.597 11.5112 60.6143 11.5112C62.1523 11.5112 63.3446 12.1053 64.1909 13.2935C65.0373 14.4735 65.4604 16.154 65.4604 18.335ZM61.8838 18.335C61.8838 16.8538 61.6559 15.743 61.2002 15.0024C60.7526 14.2619 60.0731 13.8916 59.1616 13.8916C58.2502 13.8916 57.5503 14.2904 57.062 15.0879C56.5819 15.8854 56.3418 17.0003 56.3418 18.4326C56.3418 19.8568 56.5819 20.9595 57.062 21.7407C57.5503 22.5138 58.242 22.9004 59.1372 22.9004C60.0568 22.9004 60.7445 22.522 61.2002 21.7651C61.6559 21.0002 61.8838 19.8568 61.8838 18.335ZM71.686 19.3481V25H68.2437V11.792H71.686V17.0166H76.4102V11.792H79.8525V25H76.4102V19.3481H71.686Z" fill="black"/>
</svg>
