<svg width="40" height="33" viewBox="0 0 40 33" fill="none" xmlns="http://www.w3.org/2000/svg">
<path d="M20.0002 0.833374C18.221 0.833374 16.5147 1.55551 15.2567 2.84091C13.9986 4.12632 13.2918 5.8697 13.2918 7.68754H17.1252C17.1252 6.90847 17.4281 6.1613 17.9672 5.61041C18.5064 5.05953 19.2377 4.75004 20.0002 4.75004C20.7627 4.75004 21.4939 5.05953 22.0331 5.61041C22.5723 6.1613 22.8752 6.90847 22.8752 7.68754C22.8752 8.46661 22.5723 9.21378 22.0331 9.76467C21.4939 10.3156 20.7627 10.625 20.0002 10.625C18.946 10.625 18.0835 11.5063 18.0835 12.5834V16.0105L1.60016 28.6417C1.27834 28.8883 1.04062 29.2321 0.920678 29.6245C0.800733 30.0168 0.804643 30.4377 0.931853 30.8277C1.05906 31.2176 1.30313 31.5567 1.62947 31.7971C1.95581 32.0374 2.34789 32.1667 2.75016 32.1667H37.2502C37.6524 32.1667 38.0445 32.0374 38.3709 31.7971C38.6972 31.5567 38.9413 31.2176 39.0685 30.8277C39.1957 30.4377 39.1996 30.0168 39.0796 29.6245C38.9597 29.2321 38.722 28.8883 38.4002 28.6417L21.9168 16.0105V14.248C23.3 13.8266 24.5132 12.9607 25.3764 11.7789C26.2397 10.597 26.7068 9.16222 26.7085 7.68754C26.7085 5.8697 26.0017 4.12632 24.7437 2.84091C23.4856 1.55551 21.7793 0.833374 20.0002 0.833374ZM20.0002 19.4375L31.5002 28.25H8.50016L20.0002 19.4375Z" fill="black"/>
</svg>
