<svg width="28" height="26" viewBox="0 0 28 26" fill="none" xmlns="http://www.w3.org/2000/svg">
<path d="M15.8652 2.82398C15.2949 0.986615 12.6943 0.9866 12.1239 2.82398L10.3025 8.69175C10.2154 8.97232 9.95161 9.16018 9.65798 9.15076L3.31664 8.94733C1.31594 8.88315 0.518739 11.5073 2.21704 12.5668L7.2852 15.7289C7.55226 15.8955 7.66241 16.2289 7.54718 16.5218L5.40699 21.962C4.69105 23.7818 6.79075 25.4118 8.37627 24.2671L13.6124 20.4867C13.8405 20.322 14.1486 20.322 14.3767 20.4867L19.6128 24.2671C21.1984 25.4118 23.2981 23.7818 22.5821 21.962L20.4419 16.5218C20.3267 16.2289 20.4369 15.8955 20.7039 15.7289L25.7721 12.5668C27.4704 11.5073 26.6732 8.88315 24.6725 8.94733L18.3311 9.15076C18.0375 9.16018 17.7737 8.97232 17.6866 8.69175L15.8652 2.82398Z" stroke="black" stroke-opacity="0.5" stroke-width="1.3058"/>
</svg>
