<svg width="28" height="26" viewBox="0 0 28 26" fill="none" xmlns="http://www.w3.org/2000/svg">
<path d="M12.9911 3.01754C13.3713 1.79262 15.1051 1.79263 15.4853 3.01754L17.3068 8.88531C17.4809 9.44646 18.0085 9.82216 18.5957 9.80332L24.9371 9.5999C26.2709 9.55711 26.8023 11.3065 25.6701 12.0129L20.602 15.1749C20.0679 15.5082 19.8475 16.175 20.078 16.7609L22.2182 22.201C22.6955 23.4142 21.2957 24.5009 20.2387 23.7377L15.0026 19.9573C14.5463 19.6279 13.9302 19.6279 13.4738 19.9573L8.23774 23.7377C7.18072 24.5009 5.78093 23.4142 6.25821 22.201L8.39841 16.7609C8.62888 16.175 8.40856 15.5082 7.87446 15.1749L2.8063 12.0129C1.67409 11.3065 2.20556 9.55711 3.53936 9.5999L9.8807 9.80332C10.468 9.82216 10.9955 9.44646 11.1697 8.88531L12.9911 3.01754Z" fill="#FFF06A"/>
<path d="M17.9303 8.69175L16.1089 2.82398C15.5385 0.986615 12.9379 0.9866 12.3676 2.82398L10.5461 8.69175C10.459 8.97232 10.1953 9.16018 9.90163 9.15076L3.5603 8.94733C1.55959 8.88315 0.762391 11.5073 2.4607 12.5668L7.52886 15.7289C7.79591 15.8955 7.90607 16.2289 7.79083 16.5218L5.65064 21.962C4.93471 23.7818 7.03441 25.4118 8.61993 24.2671L13.856 20.4867C14.0842 20.322 14.3922 20.322 14.6204 20.4867L19.8565 24.2671C21.442 25.4118 23.5417 23.7818 22.8258 21.962L20.6856 16.5218C20.5704 16.2289 20.6805 15.8955 20.9476 15.7289L26.0157 12.5668C27.714 11.5073 26.9168 8.88315 24.9161 8.94733L18.5748 9.15076C18.2812 9.16018 18.0174 8.97232 17.9303 8.69175Z" stroke="black" stroke-opacity="0.5" stroke-width="1.3058"/>
</svg>
