<svg width="27" height="26" viewBox="0 0 27 26" fill="none" xmlns="http://www.w3.org/2000/svg">
<path d="M11.9242 3.10154C12.3 1.86773 14.0468 1.86772 14.4225 3.10154L16.1818 8.87784C16.3538 9.44268 16.8834 9.8218 17.4736 9.80251L23.6549 9.60041C24.9832 9.55698 25.5197 11.2943 24.3983 12.0074L19.4156 15.1759C18.8906 15.5097 18.674 16.1676 18.898 16.748L20.991 22.1703C21.4611 23.3882 20.0503 24.466 18.9988 23.6923L13.9473 19.975C13.487 19.6362 12.8598 19.6362 12.3994 19.975L7.34795 23.6923C6.29646 24.466 4.8857 23.3882 5.3558 22.1703L7.44874 16.748C7.67276 16.1676 7.45621 15.5097 6.93122 15.1759L1.94852 12.0074C0.827074 11.2943 1.36361 9.55698 2.69189 9.60041L8.87319 9.80251C9.46333 9.8218 9.99299 9.44268 10.165 8.87784L11.9242 3.10154Z" fill="#FFF06A"/>
<path d="M15.0471 2.91132C14.4835 1.06059 11.8633 1.0606 11.2997 2.91132L9.54044 8.68762C9.45443 8.97004 9.1896 9.1596 8.89453 9.14996L2.71323 8.94785C0.72081 8.88271 -0.0840001 11.4886 1.59818 12.5583L6.58088 15.7268C6.84337 15.8938 6.95165 16.2227 6.83963 16.5129L4.7467 21.9352C4.04154 23.7621 6.15768 25.3788 7.73492 24.2181L12.7864 20.5009C13.0166 20.3315 13.3302 20.3315 13.5604 20.5009L18.6119 24.2181C20.1891 25.3788 22.3052 23.7621 21.6001 21.9352L19.5071 16.5129C19.3951 16.2227 19.5034 15.8938 19.7659 15.7268L24.7486 12.5583C26.4308 11.4886 25.626 8.88271 23.6336 8.94785L17.4523 9.14995C17.1572 9.1596 16.8924 8.97004 16.8063 8.68762L15.0471 2.91132Z" stroke="black" stroke-opacity="0.5" stroke-width="1.3058"/>
</svg>
