<svg width="16" height="14" viewBox="0 0 16 14" fill="none" xmlns="http://www.w3.org/2000/svg">
<path d="M8.96584 1.15518C8.6486 0.12571 7.19136 0.125715 6.87412 1.15518L5.85776 4.4534C5.80933 4.61056 5.66172 4.71589 5.49735 4.71058L1.94493 4.59579C0.828845 4.55972 0.381795 6.022 1.32725 6.6162L4.17687 8.40711C4.32511 8.50027 4.38625 8.6856 4.32256 8.84868L3.12196 11.9228C2.72426 12.9411 3.90094 13.849 4.78505 13.206L7.70542 11.0821C7.83334 10.9891 8.00663 10.9891 8.13455 11.0821L11.0549 13.206C11.939 13.849 13.1157 12.9411 12.718 11.9228L11.5174 8.84868C11.4537 8.6856 11.5149 8.50027 11.6631 8.40711L14.5127 6.6162C15.4582 6.022 15.0111 4.55972 13.895 4.59579L10.3426 4.71058C10.1782 4.71589 10.0306 4.61056 9.98221 4.4534L8.96584 1.15518Z" stroke="black" stroke-opacity="0.5" stroke-width="0.729593"/>
</svg>
