<svg width="15" height="14" viewBox="0 0 15 14" fill="none" xmlns="http://www.w3.org/2000/svg">
<path d="M6.82626 1.30987C7.03526 0.618611 8.01401 0.618608 8.223 1.30987L9.20465 4.55667C9.30031 4.87305 9.5967 5.0856 9.92704 5.07472L13.3898 4.96068C14.1308 4.93627 14.4316 5.90435 13.8074 6.30424L11.0058 8.0988C10.7144 8.28545 10.5942 8.6511 10.718 8.97422L11.8921 12.0382C12.1532 12.7197 11.3626 13.32 10.7763 12.8854L7.9591 10.7971C7.70104 10.6058 7.34822 10.6058 7.09016 10.7971L4.27294 12.8854C3.68663 13.32 2.89604 12.7197 3.15718 12.0382L4.33122 8.97422C4.45504 8.6511 4.33485 8.28545 4.04347 8.0988L1.2419 6.30424C0.61763 5.90435 0.918488 4.93627 1.65945 4.96068L5.12222 5.07472C5.45257 5.0856 5.74896 4.87305 5.84461 4.55667L6.82626 1.30987Z" fill="#FFF06A"/>
<path d="M8.57219 1.2043C8.25869 0.167401 6.79057 0.16741 6.47707 1.2043L5.49543 4.4511C5.4476 4.60929 5.2994 4.71557 5.13423 4.71013L1.67146 4.59608C0.560014 4.55947 0.108726 6.01159 1.04514 6.61142L3.8467 8.40598C3.99239 8.49931 4.05249 8.68213 3.99058 8.84369L2.81653 11.9077C2.42483 12.9299 3.61071 13.8303 4.49017 13.1784L7.30739 11.0901C7.43643 10.9945 7.61284 10.9945 7.74187 11.0901L10.5591 13.1784C11.4385 13.8303 12.6244 12.9299 12.2327 11.9077L11.0587 8.84369C10.9968 8.68213 11.0569 8.49931 11.2026 8.40598L14.0041 6.61142C14.9405 6.01159 14.4892 4.55947 13.3778 4.59608L9.91503 4.71013C9.74986 4.71557 9.60166 4.60929 9.55384 4.4511L8.57219 1.2043Z" stroke="black" stroke-opacity="0.5" stroke-width="0.729593"/>
</svg>
