<svg width="31" height="31" viewBox="0 0 31 31" fill="none" xmlns="http://www.w3.org/2000/svg">
<path d="M15.4997 27.9646C15.0993 27.9646 14.7118 27.9129 14.3888 27.7966C9.45467 26.1046 1.61426 20.0983 1.61426 11.2246C1.61426 6.70373 5.26967 3.0354 9.76467 3.0354C11.9476 3.0354 13.9884 3.8879 15.4997 5.41207C17.0109 3.8879 19.0518 3.0354 21.2347 3.0354C25.7297 3.0354 29.3851 6.71665 29.3851 11.2246C29.3851 20.1112 21.5447 26.1046 16.6105 27.7966C16.2876 27.9129 15.9001 27.9646 15.4997 27.9646ZM9.76467 4.9729C6.34176 4.9729 3.55176 7.77582 3.55176 11.2246C3.55176 20.0466 12.038 24.955 15.0218 25.9754C15.2543 26.0529 15.758 26.0529 15.9905 25.9754C18.9613 24.955 27.4605 20.0596 27.4605 11.2246C27.4605 7.77582 24.6705 4.9729 21.2476 4.9729C19.2843 4.9729 17.463 5.88998 16.2876 7.47873C15.9259 7.96957 15.0993 7.96957 14.7376 7.47873C13.5363 5.87707 11.728 4.9729 9.76467 4.9729Z" fill="black"/>
</svg>
