<svg width="35" height="35" viewBox="0 0 35 35" fill="none" xmlns="http://www.w3.org/2000/svg">
<path d="M10.6553 18.8531L29.0397 2.76556C29.0397 2.76556 30.7622 1.04306 32.4863 2.76556C34.2096 4.48968 32.4863 6.21299 32.4863 6.21299L16.3996 24.5982L10.6553 18.8531Z" stroke="black" stroke-width="3" stroke-linejoin="round"/>
<path d="M15.8257 14.8312L20.422 19.4275" stroke="black" stroke-width="3" stroke-linecap="round" stroke-linejoin="round"/>
<path d="M2.0367 22.8742L10.6549 18.8523L16.3993 24.5983L12.3774 33.2157C12.3774 33.2157 8.35551 33.7901 4.90889 30.3435C1.46145 26.896 2.0367 22.8742 2.0367 22.8742Z" stroke="black" stroke-width="3" stroke-linejoin="round"/>
<path d="M3.18652 27.4704L7.2084 25.7471M7.78284 32.0667L8.93252 29.7689" stroke="black" stroke-width="3" stroke-linecap="round" stroke-linejoin="round"/>
<path d="M12.9546 16.8421L15.2523 14.8311L17.5501 12.8202M22.4332 17.7033L20.4223 20.0011L18.4113 22.2996" stroke="black" stroke-width="3" stroke-linejoin="round"/>
</svg>
