<svg width="45" height="39" viewBox="0 0 45 39" fill="none" xmlns="http://www.w3.org/2000/svg">
<path d="M8.28571 17.7143H5.14286C4.30932 17.7143 3.50992 18.0454 2.92052 18.6348C2.33112 19.2242 2 20.0236 2 20.8571V36.5714H11.4286M8.28571 17.7143C9.11925 17.7143 9.91865 18.0454 10.508 18.6348C11.0974 19.2242 11.4286 20.0236 11.4286 20.8571V36.5714M8.28571 17.7143V11.4286C8.28571 8.92796 9.27908 6.52977 11.0473 4.76157C12.8155 2.99336 15.2137 2 17.7143 2H27.1429C29.6435 2 32.0417 2.99336 33.8099 4.76157C35.5781 6.52977 36.5714 8.92796 36.5714 11.4286V17.7143M11.4286 36.5714H33.4286M36.5714 17.7143H39.7143C40.5478 17.7143 41.3472 18.0454 41.9366 18.6348C42.526 19.2242 42.8571 20.0236 42.8571 20.8571V36.5714H33.4286M36.5714 17.7143C35.7379 17.7143 34.9385 18.0454 34.3491 18.6348C33.7597 19.2242 33.4286 20.0236 33.4286 20.8571V36.5714M11.4286 24H33.4286" stroke="black" stroke-width="3.5" stroke-linecap="round" stroke-linejoin="round"/>
</svg>
