<svg width="36" height="38" viewBox="0 0 36 38" fill="none" xmlns="http://www.w3.org/2000/svg">
<path d="M27.4174 34.9416C25.2942 36.0767 22.9682 36.7825 20.5722 37.0186C18.1763 37.2548 15.7573 37.0168 13.4533 36.3181C8.80026 34.907 4.89835 31.7053 2.60594 27.4173C0.31353 23.1293 -0.18159 18.1063 1.2295 13.4532C2.64059 8.80018 5.8423 4.89826 10.1303 2.60585C19.0226 -2.14809 29.7556 0.42947 34.0773 8.51341C35.4528 11.0862 35.7499 14.1 34.9032 16.8918C34.0566 19.6837 32.1355 22.0248 29.5627 23.4003L26.6525 24.9561C26.1675 25.2154 26.017 25.7116 26.2763 26.1967C26.3627 26.3583 26.6109 26.4336 26.6973 26.5953C27.7762 27.0579 28.6182 27.8551 29.1368 28.8252C30.5085 31.0023 29.6809 33.7315 27.4174 34.9416ZM11.859 5.83943C8.4286 7.67336 5.86723 10.7949 4.73836 14.5173C3.60949 18.2398 4.00559 22.2582 5.83951 25.6886C7.67344 29.119 10.795 31.6803 14.5174 32.8092C18.2398 33.9381 22.2583 33.542 25.6886 31.708C26.1737 31.4487 26.3242 30.9525 26.0649 30.4675C25.892 30.1441 25.6439 30.0689 25.5574 29.9072C24.4786 29.4445 23.723 28.809 23.2044 27.8389C21.9943 25.5754 22.822 22.8462 25.0855 21.6361L27.834 20.1667C29.5492 19.2497 30.8299 17.689 31.3943 15.8277C31.9588 13.9665 31.7607 11.9573 30.8438 10.2421C27.4728 3.93665 18.9729 2.03627 11.859 5.83943ZM8.15278 20.2941C9.44621 19.6026 11.183 20.1293 11.8745 21.4228C12.566 22.7162 12.0393 24.453 10.7458 25.1445C9.45241 25.836 7.71561 25.3092 7.02413 24.0158C6.33264 22.7224 6.85935 20.9856 8.15278 20.2941ZM9.54573 11.2339C10.8392 10.5424 12.576 11.0691 13.2674 12.3625C13.9589 13.656 13.4322 15.3928 12.1388 16.0843C10.8454 16.7757 9.10856 16.249 8.41708 14.9556C7.72559 13.6622 8.2523 11.9254 9.54573 11.2339ZM17.6297 6.91212C18.9231 6.22064 20.6599 6.74734 21.3514 8.04077C22.0429 9.3342 21.5162 11.071 20.2227 11.7625C18.9293 12.454 17.1925 11.9273 16.501 10.6338C15.8095 9.3404 16.3362 7.60361 17.6297 6.91212ZM25.9374 10.7862C27.2309 10.0947 28.9677 10.6214 29.6592 11.9149C30.3506 13.2083 29.8239 14.9451 28.5305 15.6366C27.2371 16.3281 25.5003 15.8014 24.8088 14.5079C24.1173 13.2145 24.644 11.4777 25.9374 10.7862Z" fill="black"/>
</svg>
